<?xml version="1.0" encoding="UTF-8"?>
<svg width="114px" height="19px" viewBox="0 0 114 19" version="1.1" xmlns="http://www.w3.org/2000/svg" xmlns:xlink="http://www.w3.org/1999/xlink">
    <!-- Generator: Sketch 59 (86127) - https://sketch.com -->
    <title>logo-京东数科-横版/白</title>
    <desc>Created with Sketch.</desc>
    <g id="子品牌官网" stroke="none" stroke-width="1" fill="none" fill-rule="evenodd">
        <g id="JDD-子品牌-Nav" transform="translate(-35.000000, -231.000000)" fill="#FFFFFF">
            <g id="编组-18" transform="translate(0.000000, 224.000000)">
                <g id="TopBar">
                    <g id="logo-京东数科-横版/white" transform="translate(32.000000, 4.000000)">
                        <g id="编组" transform="translate(3.076923, 3.000000)">
                            <path d="M36.9935154,7.57964674 C35.9745634,2.85591486 31.8742289,0.132998188 27.6784838,0.132998188 L24.5246377,0.132998188 L24.5246377,3.83644022 L28.3071535,3.83644022 C31.8431996,3.83644022 35.2047752,4.60165761 36.9935154,7.57964674" id="Fill-1"></path>
                            <path d="M32.7090301,10.6926178 C32.7090301,10.2265851 32.6762356,9.80022645 32.6160349,9.40910326 C32.4136938,12.1321105 30.3695652,14.1705163 27.6785582,14.1705163 L24.5246191,14.1705163 L24.5246191,17.8810236 L25.7270531,17.8810236 C29.7073579,17.8810236 32.7090301,14.7907156 32.7090301,10.6926178" id="Fill-3"></path>
                            <path d="M29.5700483,4.73939312 C32.1455779,5.45624094 33.5811966,7.53776268 33.5811966,10.692654 C33.5811966,15.0402989 31.1099963,17.8371286 27.1488294,18.6600453 L27.8438313,18.6600453 C33.1314567,18.6600453 37.0284281,14.0633062 37.0284281,10.4562409 C37.0284281,6.73586051 32.7225009,4.99201993 29.5700483,4.73939312" id="Fill-5"></path>
                            <path d="M23.1618729,2.93682065 C21.3495355,1.10131341 18.9152174,0.0905344203 16.3079153,0.0905344203 L8.84879227,0.0905344203 L8.84879227,12.159375 C8.84879227,13.291712 7.90416202,14.2129076 6.74279078,14.2129076 C5.58141955,14.2129076 4.63641769,13.291712 4.63641769,12.159375 L4.63641769,10.9841033 L3.71609067e-05,10.9841033 L3.71609067e-05,12.159375 C3.71609067e-05,15.784375 3.02493497,18.7334692 6.74279078,18.7334692 C10.4606466,18.7334692 13.4851728,15.784375 13.4851728,12.159375 L13.4851728,4.61100543 L16.3079153,4.61100543 C17.6436641,4.61100543 18.8916202,5.12993659 19.822408,6.07223732 C20.7516165,7.01336051 21.2357302,8.25004529 21.1849127,9.55493659 C21.0840208,12.1620924 19.0536418,14.128125 16.4625046,14.128125 L13.177945,14.128125 L13.177945,18.648596 L16.4625046,18.648596 C21.5988852,18.648596 25.6211817,14.8125453 25.8181345,9.72576993 C25.9166109,7.18201993 24.9732813,4.77087862 23.1618729,2.93682065" id="Fill-7"></path>
                            <polygon id="Fill-9" points="75.2310479 15.4925453 76.4162951 15.4925453 74.6523597 11.092817 72.5398551 11.092817"></polygon>
                            <polygon id="Fill-11" points="63.1649201 11.0927989 61.4006132 15.4925272 62.5866964 15.4925272 65.2778893 11.0927989"></polygon>
                            <path d="M66.4242939,3.99564312 L66.7686826,3.13486413 L64.6758733,3.13486413 L64.3271182,3.99564312 L61.4006039,3.99564312 L61.4006039,5.12616848 L63.8674378,5.12616848 L61.9125883,9.92671196 L67.9752973,9.92671196 L67.9752973,12.9549728 C67.9752973,13.624538 67.8609346,13.9139402 67.6345318,14.107962 C67.4050632,14.3015308 67.06021,14.4036141 66.5995076,14.4114946 L66.5995076,15.4925634 C67.7948811,15.4553351 68.6688127,15.2027989 69.2253902,14.7315127 C69.7796451,14.2614946 70.059188,13.5396649 70.059188,12.572817 L70.059188,9.92671196 L75.8336213,9.92671196 L75.8336213,9.87299819 L75.8336213,8.79700181 L70.059188,8.79700181 L70.059188,7.02218297 L67.9752973,7.02218297 L67.9752973,8.79700181 L64.5759104,8.79700181 L65.9710238,5.12616848 L76.4163043,5.12616848 L76.4163043,3.99564312 L66.4242939,3.99564312 Z" id="Fill-13"></path>
                            <path d="M45.3651988,8.79701087 L55.2739688,8.79701087 L55.2739688,7.02219203 L45.3651988,7.02219203 L45.3651988,8.79701087 Z M57.2821442,9.91811594 L57.2821442,5.89166667 L43.3554441,5.89166667 L43.3554441,9.91811594 L43.3554441,9.92672101 L49.2732256,9.92672101 L49.2732256,12.9549819 C49.2732256,13.5962862 49.1580268,13.9139493 48.9320884,14.107971 C48.7040134,14.3015399 48.3576737,14.4036232 47.897343,14.4115036 L47.897343,15.4925725 C49.0927165,15.4553442 49.9686919,15.2027174 50.5241546,14.7315217 C51.0771089,14.2615036 51.3567447,13.5396739 51.3567447,12.5728261 L51.3567447,9.92672101 L57.2821442,9.92672101 L57.2821442,9.91811594 Z" id="Fill-15"></path>
                            <polygon id="Fill-17" points="51.3646971 3.99564312 51.3646971 3.13486413 49.2730955 3.13486413 49.2730955 3.99564312 42.8499257 3.99564312 42.8499257 5.12625906 57.7895392 5.12625906 57.7895392 3.99564312"></polygon>
                            <polygon id="Fill-18" points="42.8498978 15.4925453 44.0353307 15.4925453 46.727081 11.092817 44.6135544 11.092817"></polygon>
                            <polygon id="Fill-19" points="53.9135173 11.0927989 56.6047101 15.4925272 57.7895857 15.4925272 56.0256503 11.0927989"></polygon>
                            <path d="M85.5092716,3.24084239 L83.73233,3.24084239 L83.73233,6.01276268 L80.428168,6.01276268 L80.428168,7.13060688 L81.5387217,7.13060688 C81.2140282,7.54283514 80.8627648,8.05451993 80.4931996,8.84328804 L82.2086399,8.84328804 C82.3353586,8.25388587 82.5549796,7.65116848 82.7612226,7.13060688 L83.73233,7.13060688 L83.73233,8.93259964 L83.73233,9.21040761 L85.5092716,9.21040761 L85.5092716,7.13060688 L86.4802861,7.13060688 C86.6865292,7.65116848 86.906243,8.25388587 87.0328688,8.84328804 L88.7483092,8.84328804 C88.3788369,8.05451993 88.0275734,7.54283514 87.70288,7.13060688 L88.8134337,7.13060688 L88.8134337,6.01276268 L85.5092716,6.01276268 L85.5092716,3.24084239 Z" id="Fill-20"></path>
                            <path d="M84.6418525,13.2170833 C83.8167874,12.7656341 83.1818933,12.1534058 83.1183482,11.3317572 L86.1652638,11.3317572 C86.1018116,12.1534058 85.4669175,12.7656341 84.6418525,13.2170833 L84.6418525,13.2170833 Z M87.7748885,9.34987319 L86.2158956,9.34987319 C86.2158956,9.62722826 86.2132943,9.9217029 86.2077202,10.213913 L83.0759848,10.213913 C83.0703177,9.9217029 83.0678094,9.62722826 83.0678094,9.34987319 L81.5087235,9.34987319 L81.513926,10.213913 L80.4281773,10.213913 L80.4281773,11.3317572 L81.5205221,11.3317572 C81.5205221,11.3317572 81.4704478,12.6884601 83.0480212,13.8629167 C81.7192401,14.266087 80.470262,14.392808 80.470262,14.392808 L80.470262,15.5093841 C82.2675492,15.4058514 83.6210424,15.1078442 84.6418525,14.7159964 C85.6625697,15.1078442 87.0161557,15.4058514 88.813443,15.5093841 L88.813443,14.392808 C88.813443,14.392808 87.5644649,14.266087 86.2356838,13.8629167 C87.8132572,12.6884601 87.7631828,11.3317572 87.7631828,11.3317572 L88.813443,11.3317572 L88.813443,10.213913 L87.7697789,10.213913 L87.7748885,9.34987319 Z" id="Fill-21"></path>
                            <path d="M91.77945,10.1247283 C91.5404125,8.79257246 91.5249907,6.67146739 91.5278707,5.90788043 L93.0229469,5.90788043 C93.0193237,6.48967391 92.988573,8.70344203 92.7334634,10.1247283 C92.6485507,10.5977355 92.4874582,11.065308 92.2565032,11.5164855 C92.0254552,11.065308 91.8642698,10.5977355 91.77945,10.1247283 M94.5882572,5.90788043 L95.2548309,5.90788043 L95.2548309,4.79003623 L91.9634894,4.79003623 C92.1124117,4.50697464 92.243311,4.18668478 92.3467113,3.82246377 L90.4376626,3.82246377 C90.3344482,4.55516304 89.7314195,5.82871377 89.1413043,5.96449275 L89.1413043,6.87536232 C89.1413043,6.87536232 89.4977703,6.8384058 89.9814195,6.63414855 C90.0081754,7.7076087 90.0663322,9.18387681 90.1695466,9.99456522 C90.3153103,11.1393116 90.7637495,12.0703804 91.3375139,12.8197464 C90.7914344,13.409058 90.097919,13.9378623 89.2579896,14.3675725 L89.2579896,15.5093297 C89.2579896,15.5093297 90.8463397,15.0418478 92.2565032,13.7990036 C93.6664809,15.0418478 95.2548309,15.5093297 95.2548309,15.5093297 L95.2548309,14.3675725 C94.4149015,13.9378623 93.7213861,13.409058 93.1753066,12.8197464 C93.749071,12.0703804 94.1975102,11.1393116 94.3433668,9.99456522 C94.4793757,8.92644928 94.5736715,6.8298913 94.5882572,5.90788043" id="Fill-22"></path>
                            <path d="M82.99411,5.62174819 C82.7781122,5.09158514 82.4820327,4.37799819 82.3332962,3.68578804 L80.8390561,3.68578804 C81.3050539,4.68044384 81.7376068,5.16939312 82.1151616,5.62174819 L82.99411,5.62174819 Z" id="Fill-23"></path>
                            <path d="M88.4025827,3.68577899 L86.9082497,3.68577899 C86.7594203,4.37798913 86.4635266,5.09166667 86.2474359,5.62173913 L87.1263842,5.62173913 C87.5039391,5.16938406 87.936492,4.68043478 88.4025827,3.68577899" id="Fill-24"></path>
                            <polygon id="Fill-25" points="102.928911 4.76053442 104.774508 4.56941123 104.774508 3.28743659 99.422408 4.23127717 99.422408 5.1655163 101.284262 4.9472192 101.284262 5.96895833 98.7876997 5.96895833 98.7876997 7.07122283 101.284262 7.07122283 101.284262 15.5093569 102.928911 15.5093569 102.928911 7.07122283 105.132832 7.07122283 105.132832 5.96895833 102.928911 5.96895833"></polygon>
                            <path d="M99.5888703,8.1596558 L99.5888703,11.2002355 C99.5888703,13.1058514 98.7876812,13.6581159 98.7876812,13.6581159 L98.7876812,14.5840217 C98.7876812,14.5840217 100.893125,14.1926268 100.893125,11.274692 L100.893125,11.2671739 L100.893125,8.1596558 L99.9027871,8.1596558 L99.5888703,8.1596558 Z" id="Fill-26"></path>
                            <polygon id="Fill-27" points="109.388703 6.97567029 108.003623 4.26769928 105.950669 4.26769928 107.947696 6.97567029"></polygon>
                            <polygon id="Fill-28" points="105.163731 12.1577264 105.163731 11.0466757 110.12369 11.0466757 110.12369 3.21162138 111.914474 3.21162138 111.914474 11.0466757 113.730528 11.0466757 113.730528 12.1577264 111.914474 12.1577264 111.914474 15.5385236 110.12369 15.5385236 110.12369 12.1577264"></polygon>
                            <path d="M104.584727,8.1596558 L104.584727,11.2032246 C104.584727,13.1088406 105.385823,13.6610145 105.385823,13.6610145 L105.385823,14.5869203 C105.385823,14.5869203 103.280379,14.1955254 103.280379,11.2775906 L103.280379,11.2700725 L103.280379,8.1596558 L104.270717,8.1596558 L104.584727,8.1596558 Z" id="Fill-29"></path>
                            <polygon id="Fill-30" points="109.388703 10.2465308 108.003623 7.53855978 105.950669 7.53855978 107.947696 10.2465308"></polygon>
                        </g>
                    </g>
                </g>
            </g>
        </g>
    </g>
</svg>